<svg xmlns="http://www.w3.org/2000/svg" xmlns:xlink="http://www.w3.org/1999/xlink" width="500" zoomAndPan="magnify" viewBox="0 0 375 374.999991" height="500" preserveAspectRatio="xMidYMid meet" version="1.0"><defs><g/><clipPath id="06a4263097"><path d="M 230.105469 174.921875 L 259 174.921875 L 259 210 L 230.105469 210 Z M 230.105469 174.921875 " clip-rule="nonzero"/></clipPath></defs><g clip-path="url(#06a4263097)"><path fill="#000000" d="M 252.695312 191.417969 C 253.1875 190.925781 253.59375 190.464844 254.054688 190.078125 C 254.613281 189.597656 255.203125 189.15625 255.820312 188.761719 C 256.617188 188.257812 257.261719 188.511719 257.496094 189.4375 C 257.820312 190.726562 258.078125 192.03125 258.335938 193.335938 C 258.8125 195.78125 258.933594 198.226562 258.125 200.636719 C 256.675781 204.972656 253.738281 207.730469 249.3125 208.808594 C 247.644531 209.214844 245.957031 209.535156 244.257812 209.761719 C 235.722656 210.902344 231.027344 204.171875 230.503906 198.90625 C 230.109375 194.957031 231.339844 191.484375 233.488281 188.339844 C 234.894531 186.277344 236.660156 184.464844 238.253906 182.527344 C 239.21875 181.351562 240.203125 180.1875 241.101562 178.960938 C 241.808594 177.996094 242.128906 176.847656 242.332031 175.667969 C 242.378906 175.390625 242.527344 175.144531 242.746094 174.976562 C 242.847656 174.910156 243.171875 175.171875 243.386719 175.304688 C 243.738281 175.527344 244.082031 175.765625 244.429688 175.992188 C 248.371094 178.570312 250.742188 182.253906 251.871094 186.777344 C 252.203125 188.109375 252.363281 189.484375 252.601562 190.839844 C 252.628906 191 252.652344 191.160156 252.695312 191.417969 Z M 243.417969 176.789062 C 243.046875 178.863281 242.054688 180.523438 240.816406 182.042969 C 239.617188 183.511719 238.390625 184.957031 237.167969 186.40625 C 235.234375 188.703125 233.707031 191.210938 232.8125 194.121094 C 230.820312 200.585938 235.023438 208.667969 243.488281 208.117188 C 245.78125 207.96875 248.0625 207.953125 250.214844 206.871094 C 253.671875 205.136719 256.011719 202.5625 256.828125 198.703125 C 257.417969 195.910156 256.589844 193.253906 256.066406 190.457031 C 254.644531 191.582031 253.570312 192.824219 252.949219 194.429688 C 252.824219 194.75 252.714844 195.082031 252.566406 195.390625 C 252.378906 195.777344 252.054688 196 251.609375 195.910156 C 251.121094 195.808594 250.941406 195.441406 250.957031 194.976562 C 250.976562 194.484375 251.027344 193.992188 251.054688 193.5 C 251.292969 189.148438 250.351562 185.078125 248.058594 181.363281 C 246.910156 179.476562 245.316406 177.90625 243.417969 176.789062 Z M 243.417969 176.789062 " fill-opacity="1" fill-rule="nonzero"/></g><path fill="#000000" d="M 257.980469 176.648438 C 258.152344 177.171875 258.324219 177.699219 258.503906 178.226562 C 258.875 179.3125 259.375 180.375 259.605469 181.492188 C 260.082031 183.789062 258.886719 185.59375 256.644531 186.1875 C 255.886719 186.386719 255.359375 186.101562 255.074219 185.375 C 254.949219 185.0625 254.789062 184.761719 254.597656 184.484375 C 253.378906 182.695312 253.089844 180.84375 254.101562 178.851562 C 254.757812 177.550781 255.726562 176.511719 256.738281 175.507812 C 256.925781 175.324219 257.355469 175.203125 257.578125 175.292969 C 257.808594 175.378906 257.964844 175.746094 258.085938 176.019531 C 258.15625 176.183594 258.097656 176.40625 258.097656 176.605469 Z M 256.546875 177.773438 C 254.863281 179.433594 253.871094 182.046875 256.082031 184.429688 C 257.457031 184.011719 257.992188 183.207031 257.871094 181.808594 C 257.75 180.355469 257.097656 179.085938 256.546875 177.773438 Z M 256.546875 177.773438 " fill-opacity="1" fill-rule="nonzero"/><path fill="#000000" d="M 245.964844 196.246094 C 246.339844 195.355469 246.683594 194.542969 247.019531 193.730469 C 247.199219 193.300781 247.425781 192.929688 247.953125 192.917969 C 248.4375 192.90625 248.707031 193.21875 248.917969 193.605469 C 249.941406 195.484375 250.921875 197.390625 251.363281 199.511719 C 252.105469 203.078125 249.90625 206.460938 246.390625 207.3125 C 243.976562 207.898438 241.695312 207.507812 239.546875 206.398438 C 237.09375 205.128906 236.003906 202.902344 235.84375 200.242188 C 235.542969 195.152344 238.890625 190.007812 243.628906 188.109375 C 243.996094 187.964844 244.34375 187.753906 244.71875 187.671875 C 245.023438 187.605469 245.472656 187.558594 245.65625 187.726562 C 245.769531 187.855469 245.859375 188.011719 245.910156 188.179688 C 245.964844 188.34375 245.980469 188.523438 245.960938 188.695312 C 245.871094 189.324219 245.625 189.925781 245.457031 190.546875 C 244.875 192.746094 245.011719 194.421875 245.964844 196.246094 Z M 243.863281 189.570312 C 243.742188 189.617188 243.625 189.667969 243.507812 189.726562 C 239.78125 191.765625 237.949219 195.078125 237.554688 199.167969 C 237.210938 202.710938 239.429688 205.417969 242.914062 206.113281 C 243.078125 206.15625 243.253906 206.160156 243.421875 206.125 C 244.523438 205.800781 245.644531 205.523438 246.714844 205.109375 C 248.765625 204.320312 249.910156 202.257812 249.597656 200.082031 C 249.359375 198.425781 248.679688 196.929688 247.964844 195.445312 C 247.949219 195.417969 247.882812 195.414062 247.703125 195.347656 C 247.453125 196.195312 247.179688 197.03125 246.96875 197.878906 C 246.789062 198.617188 246.09375 198.921875 245.480469 198.476562 C 245.34375 198.371094 245.222656 198.246094 245.125 198.105469 C 244.183594 196.6875 243.496094 195.15625 243.503906 193.433594 C 243.507812 192.167969 243.730469 190.90625 243.863281 189.570312 Z M 243.863281 189.570312 " fill-opacity="1" fill-rule="nonzero"/><g fill="#000000" fill-opacity="1"><g transform="translate(114.924599, 201.050449)"><g><path d="M 8.136719 -11.777344 L 16.464844 0 L 24.289062 0 L 13.792969 -13.171875 L 23.902344 -26.34375 L 16.464844 -26.34375 L 8.136719 -14.566406 L 8.136719 -26.34375 L 2.324219 -26.34375 L 2.324219 0 L 8.136719 0 Z M 8.136719 -11.777344 "/></g></g></g><g fill="#000000" fill-opacity="1"><g transform="translate(138.826733, 201.050449)"><g><path d="M 16.660156 -10.074219 L 9.996094 -10.074219 L 13.328125 -19.449219 Z M 26.5 0 L 15.804688 -26.34375 L 10.886719 -26.34375 L 0.195312 0 L 6.429688 0 L 8.328125 -5.308594 L 18.363281 -5.308594 L 20.261719 0 Z M 26.5 0 "/></g></g></g><g fill="#000000" fill-opacity="1"><g transform="translate(165.51809, 201.050449)"><g><path d="M 35.175781 0 L 30.0625 -26.34375 L 23.167969 -26.34375 L 17.703125 -7.863281 L 12.203125 -26.34375 L 5.308594 -26.34375 L 0.195312 0 L 6.585938 0 L 9.683594 -18.167969 L 14.835938 0 L 20.53125 0 L 25.683594 -18.167969 L 28.785156 0 Z M 35.175781 0 "/></g></g></g><g fill="#000000" fill-opacity="1"><g transform="translate(200.88705, 201.050449)"><g><path d="M 8.136719 -9.414062 L 12.203125 -9.414062 C 16.464844 -9.414062 20.261719 -12.550781 20.261719 -17.898438 C 20.261719 -22.894531 16.464844 -26.34375 12.203125 -26.34375 L 2.324219 -26.34375 L 2.324219 0 L 8.136719 0 Z M 11.234375 -21.773438 C 12.9375 -21.773438 14.722656 -20.300781 14.722656 -17.898438 C 14.722656 -15.378906 12.9375 -13.984375 11.234375 -13.984375 L 8.136719 -13.984375 L 8.136719 -21.773438 Z M 11.234375 -21.773438 "/></g></g></g><path stroke-linecap="butt" transform="matrix(0.752204, 0, 0, 0.75, 114.919384, 206.209952)" fill="none" stroke-linejoin="miter" d="M -0.00188168 2.001314 L 143.581454 2.001314 " stroke="#000000" stroke-width="4" stroke-opacity="1" stroke-miterlimit="4"/></svg>